<?xml version="1.0" encoding="utf-8"?>
<!-- Generator: Adobe Illustrator 19.0.1, SVG Export Plug-In . SVG Version: 6.00 Build 0)  -->
<svg version="1.1" id="Layer_1" onload="init(evt)" xmlns:svg="http://www.w3.org/2000/svg"
	 xmlns="http://www.w3.org/2000/svg" xmlns:xlink="http://www.w3.org/1999/xlink" x="0px" y="0px" viewBox="89.1 86.1 608.4 621.9"
	 style="enable-background:new 89.1 86.1 608.4 621.9;" xml:space="preserve">
<style type="text/css">
	.st0{fill:none;stroke:#CC0000;stroke-width:2;}
</style>
<g id="Waypoints">
</g>
<g id="trk1_track">
	<line id="t1_p1" class="st0" x1="514.8" y1="389.9" x2="517.7" y2="394.2"/>
	<line id="t1_p2" class="st0" x1="517.7" y1="394.2" x2="521.3" y2="399.2"/>
	<line id="t1_p3" class="st0" x1="521.3" y1="399.2" x2="525.8" y2="407.2"/>
	<line id="t1_p4" class="st0" x1="525.8" y1="407.2" x2="527.2" y2="409.5"/>
	<line id="t1_p5" class="st0" x1="527.2" y1="409.5" x2="529.1" y2="411.5"/>
	<line id="t1_p6" class="st0" x1="529.1" y1="411.5" x2="531.4" y2="413"/>
	<line id="t1_p7" class="st0" x1="531.4" y1="413" x2="540" y2="418.1"/>
	<line id="t1_p8" class="st0" x1="540" y1="418.1" x2="554.3" y2="425.4"/>
	<line id="t1_p9" class="st0" x1="554.3" y1="425.4" x2="565.8" y2="431"/>
	<line id="t1_p10" class="st0" x1="565.8" y1="431" x2="567.9" y2="432.2"/>
	<line id="t1_p11" class="st0" x1="567.9" y1="432.2" x2="569.3" y2="433.3"/>
	<line id="t1_p12" class="st0" x1="569.3" y1="433.3" x2="577.4" y2="444.2"/>
	<line id="t1_p13" class="st0" x1="577.4" y1="444.2" x2="579.9" y2="446.8"/>
	<line id="t1_p14" class="st0" x1="579.9" y1="446.8" x2="581.5" y2="447.5"/>
	<line id="t1_p15" class="st0" x1="581.5" y1="447.5" x2="584.3" y2="447.5"/>
	<line id="t1_p16" class="st0" x1="584.3" y1="447.5" x2="593.3" y2="446.6"/>
	<line id="t1_p17" class="st0" x1="593.3" y1="446.6" x2="596.2" y2="447.2"/>
	<line id="t1_p18" class="st0" x1="596.2" y1="447.2" x2="598.8" y2="448.6"/>
	<line id="t1_p19" class="st0" x1="598.8" y1="448.6" x2="609.3" y2="459.3"/>
	<line id="t1_p20" class="st0" x1="609.3" y1="459.3" x2="611.9" y2="462.6"/>
	<line id="t1_p21" class="st0" x1="611.9" y1="462.6" x2="616.8" y2="469.5"/>
	<line id="t1_p22" class="st0" x1="616.8" y1="469.5" x2="619.7" y2="473.6"/>
	<line id="t1_p23" class="st0" x1="619.7" y1="473.6" x2="620.6" y2="475.9"/>
	<line id="t1_p24" class="st0" x1="620.6" y1="475.9" x2="622.1" y2="481.1"/>
	<line id="t1_p25" class="st0" x1="622.1" y1="481.1" x2="625.5" y2="494.9"/>
	<line id="t1_p26" class="st0" x1="625.5" y1="494.9" x2="627.7" y2="503"/>
	<line id="t1_p27" class="st0" x1="627.7" y1="503" x2="628.6" y2="508.6"/>
	<line id="t1_p28" class="st0" x1="628.6" y1="508.6" x2="629.9" y2="514.2"/>
	<line id="t1_p29" class="st0" x1="629.9" y1="514.2" x2="629.9" y2="514.2"/>
	<line id="t1_p30" class="st0" x1="629.9" y1="514.2" x2="630.2" y2="515.2"/>
	<line id="t1_p31" class="st0" x1="630.2" y1="515.2" x2="628.8" y2="515.5"/>
	<line id="t1_p32" class="st0" x1="628.8" y1="515.5" x2="627.4" y2="515.9"/>
	<line id="t1_p33" class="st0" x1="627.4" y1="515.9" x2="619.9" y2="515.5"/>
	<line id="t1_p34" class="st0" x1="619.9" y1="515.5" x2="607.2" y2="515.3"/>
	<line id="t1_p35" class="st0" x1="607.2" y1="515.3" x2="586.6" y2="515.8"/>
	<line id="t1_p36" class="st0" x1="586.6" y1="515.8" x2="523.5" y2="516.8"/>
	<line id="t1_p37" class="st0" x1="523.5" y1="516.8" x2="520.9" y2="517"/>
	<line id="t1_p38" class="st0" x1="520.9" y1="517" x2="518.9" y2="517.5"/>
	<line id="t1_p39" class="st0" x1="518.9" y1="517.5" x2="518" y2="517.5"/>
	<line id="t1_p40" class="st0" x1="518" y1="517.5" x2="516.8" y2="516.8"/>
	<line id="t1_p41" class="st0" x1="516.8" y1="516.8" x2="514.8" y2="515.6"/>
	<line id="t1_p42" class="st0" x1="514.8" y1="515.6" x2="514" y2="515.6"/>
	<line id="t1_p43" class="st0" x1="514" y1="515.6" x2="512.8" y2="516.4"/>
	<line id="t1_p44" class="st0" x1="512.8" y1="516.4" x2="510.5" y2="516.5"/>
	<line id="t1_p45" class="st0" x1="510.5" y1="516.5" x2="428.3" y2="518.4"/>
	<line id="t1_p46" class="st0" x1="428.3" y1="518.4" x2="423.5" y2="518.4"/>
	<line id="t1_p47" class="st0" x1="423.5" y1="518.4" x2="421.4" y2="517.5"/>
	<line id="t1_p48" class="st0" x1="421.4" y1="517.5" x2="420.3" y2="517.3"/>
	<line id="t1_p49" class="st0" x1="420.3" y1="517.3" x2="416.7" y2="518.1"/>
	<line id="t1_p50" class="st0" x1="416.7" y1="518.1" x2="403.3" y2="518.1"/>
	<line id="t1_p51" class="st0" x1="403.3" y1="518.1" x2="294.9" y2="519.1"/>
	<line id="t1_p52" class="st0" x1="294.9" y1="519.1" x2="278.1" y2="518.8"/>
	<line id="t1_p53" class="st0" x1="278.1" y1="518.8" x2="257.1" y2="517"/>
	<line id="t1_p54" class="st0" x1="257.1" y1="517" x2="240.5" y2="514.4"/>
	<line id="t1_p55" class="st0" x1="240.5" y1="514.4" x2="229.2" y2="511.8"/>
	<line id="t1_p56" class="st0" x1="229.2" y1="511.8" x2="225.6" y2="510.9"/>
	<line id="t1_p57" class="st0" x1="225.6" y1="510.9" x2="224.2" y2="509.8"/>
	<line id="t1_p58" class="st0" x1="224.2" y1="509.8" x2="221.8" y2="509.6"/>
	<line id="t1_p59" class="st0" x1="221.8" y1="509.6" x2="220.4" y2="510.4"/>
	<line id="t1_p60" class="st0" x1="220.4" y1="510.4" x2="219.7" y2="510.3"/>
	<line id="t1_p61" class="st0" x1="219.7" y1="510.3" x2="217.4" y2="508.9"/>
	<line id="t1_p62" class="st0" x1="217.4" y1="508.9" x2="206.5" y2="504.4"/>
	<line id="t1_p63" class="st0" x1="206.5" y1="504.4" x2="203.7" y2="504"/>
	<line id="t1_p64" class="st0" x1="203.7" y1="504" x2="202.9" y2="502.9"/>
	<line id="t1_p65" class="st0" x1="202.9" y1="502.9" x2="201.3" y2="501.7"/>
	<line id="t1_p66" class="st0" x1="201.3" y1="501.7" x2="199.1" y2="501.5"/>
	<line id="t1_p67" class="st0" x1="199.1" y1="501.5" x2="197.9" y2="501.4"/>
	<line id="t1_p68" class="st0" x1="197.9" y1="501.4" x2="195.4" y2="500.4"/>
	<line id="t1_p69" class="st0" x1="195.4" y1="500.4" x2="189.6" y2="497.8"/>
	<line id="t1_p70" class="st0" x1="189.6" y1="497.8" x2="175.6" y2="490.2"/>
	<line id="t1_p71" class="st0" x1="175.6" y1="490.2" x2="160.8" y2="481.6"/>
	<line id="t1_p72" class="st0" x1="160.8" y1="481.6" x2="152.7" y2="476.4"/>
	<line id="t1_p73" class="st0" x1="152.7" y1="476.4" x2="146.6" y2="471.9"/>
	<line id="t1_p74" class="st0" x1="146.6" y1="471.9" x2="132.3" y2="461"/>
	<line id="t1_p75" class="st0" x1="132.3" y1="461" x2="121.9" y2="451.5"/>
	<line id="t1_p76" class="st0" x1="121.9" y1="451.5" x2="112.8" y2="442.6"/>
	<line id="t1_p77" class="st0" x1="112.8" y1="442.6" x2="104.9" y2="433.6"/>
	<line id="t1_p78" class="st0" x1="104.9" y1="433.6" x2="97.6" y2="425.3"/>
	<line id="t1_p79" class="st0" x1="97.6" y1="425.3" x2="94.5" y2="421.2"/>
	<line id="t1_p80" class="st0" x1="94.5" y1="421.2" x2="92.8" y2="417.6"/>
	<line id="t1_p81" class="st0" x1="92.8" y1="417.6" x2="91.7" y2="416.6"/>
	<line id="t1_p82" class="st0" x1="91.7" y1="416.6" x2="90.9" y2="416.1"/>
	<line id="t1_p83" class="st0" x1="90.9" y1="416.1" x2="90.3" y2="416.2"/>
	<line id="t1_p84" class="st0" x1="90.3" y1="416.2" x2="89.5" y2="415.9"/>
	<line id="t1_p85" class="st0" x1="89.5" y1="415.9" x2="89.5" y2="415.9"/>
	<line id="t1_p86" class="st0" x1="89.5" y1="415.9" x2="90.3" y2="416.2"/>
	<line id="t1_p87" class="st0" x1="90.3" y1="416.2" x2="90.9" y2="416.1"/>
	<line id="t1_p88" class="st0" x1="90.9" y1="416.1" x2="91.6" y2="419.5"/>
	<line id="t1_p89" class="st0" x1="91.6" y1="419.5" x2="93.8" y2="428.2"/>
	<line id="t1_p90" class="st0" x1="93.8" y1="428.2" x2="99.2" y2="448.3"/>
	<line id="t1_p91" class="st0" x1="99.2" y1="448.3" x2="107.1" y2="476.1"/>
	<line id="t1_p92" class="st0" x1="107.1" y1="476.1" x2="110.9" y2="488.6"/>
	<line id="t1_p93" class="st0" x1="110.9" y1="488.6" x2="114.3" y2="501.4"/>
	<line id="t1_p94" class="st0" x1="114.3" y1="501.4" x2="121.2" y2="525.9"/>
	<line id="t1_p95" class="st0" x1="121.2" y1="525.9" x2="125.2" y2="540.5"/>
	<line id="t1_p96" class="st0" x1="125.2" y1="540.5" x2="131.5" y2="563"/>
	<line id="t1_p97" class="st0" x1="131.5" y1="563" x2="134.6" y2="573.7"/>
	<line id="t1_p98" class="st0" x1="134.6" y1="573.7" x2="137.3" y2="582.5"/>
	<line id="t1_p99" class="st0" x1="137.3" y1="582.5" x2="140" y2="592"/>
	<line id="t1_p100" class="st0" x1="140" y1="592" x2="144.3" y2="606.6"/>
	<line id="t1_p101" class="st0" x1="144.3" y1="606.6" x2="145.1" y2="609.6"/>
	<line id="t1_p102" class="st0" x1="145.1" y1="609.6" x2="145.8" y2="614.7"/>
	<line id="t1_p103" class="st0" x1="145.8" y1="614.7" x2="147.3" y2="624.7"/>
	<line id="t1_p104" class="st0" x1="147.3" y1="624.7" x2="153.8" y2="664.7"/>
	<line id="t1_p105" class="st0" x1="153.8" y1="664.7" x2="155.9" y2="679.1"/>
	<line id="t1_p106" class="st0" x1="155.9" y1="679.1" x2="156.5" y2="678.9"/>
	<line id="t1_p107" class="st0" x1="156.5" y1="678.9" x2="156.5" y2="678.9"/>
	<line id="t1_p108" class="st0" x1="156.5" y1="678.9" x2="163" y2="677.9"/>
	<line id="t1_p109" class="st0" x1="163" y1="677.9" x2="171.7" y2="675.7"/>
	<line id="t1_p110" class="st0" x1="171.7" y1="675.7" x2="190.5" y2="671.6"/>
	<line id="t1_p111" class="st0" x1="190.5" y1="671.6" x2="209.2" y2="667.4"/>
	<line id="t1_p112" class="st0" x1="209.2" y1="667.4" x2="217.9" y2="665.9"/>
	<line id="t1_p113" class="st0" x1="217.9" y1="665.9" x2="249.4" y2="661.6"/>
	<line id="t1_p114" class="st0" x1="249.4" y1="661.6" x2="263.4" y2="659.6"/>
	<line id="t1_p115" class="st0" x1="263.4" y1="659.6" x2="274" y2="657"/>
	<line id="t1_p116" class="st0" x1="274" y1="657" x2="296.7" y2="650.4"/>
	<line id="t1_p117" class="st0" x1="296.7" y1="650.4" x2="306.4" y2="648"/>
	<line id="t1_p118" class="st0" x1="306.4" y1="648" x2="315.7" y2="647.2"/>
	<line id="t1_p119" class="st0" x1="315.7" y1="647.2" x2="352.7" y2="644.7"/>
	<line id="t1_p120" class="st0" x1="352.7" y1="644.7" x2="379.3" y2="645.8"/>
	<line id="t1_p121" class="st0" x1="379.3" y1="645.8" x2="381.9" y2="646.1"/>
	<line id="t1_p122" class="st0" x1="381.9" y1="646.1" x2="396.6" y2="649.5"/>
	<line id="t1_p123" class="st0" x1="396.6" y1="649.5" x2="412.9" y2="652.3"/>
	<line id="t1_p124" class="st0" x1="412.9" y1="652.3" x2="424" y2="653.8"/>
	<line id="t1_p125" class="st0" x1="424" y1="653.8" x2="424" y2="653.8"/>
	<line id="t1_p126" class="st0" x1="424" y1="653.8" x2="425.5" y2="654.1"/>
	<line id="t1_p127" class="st0" x1="425.5" y1="654.1" x2="425.5" y2="656.9"/>
	<line id="t1_p128" class="st0" x1="425.5" y1="656.9" x2="429.3" y2="685.1"/>
	<line id="t1_p129" class="st0" x1="429.3" y1="685.1" x2="431.8" y2="705.5"/>
	<line id="t1_p130" class="st0" x1="431.8" y1="705.5" x2="431.8" y2="705.5"/>
	<line id="t1_p131" class="st0" x1="431.8" y1="705.5" x2="493.3" y2="696.9"/>
	<line id="t1_p132" class="st0" x1="493.3" y1="696.9" x2="494.7" y2="707"/>
	<line id="t1_p133" class="st0" x1="494.7" y1="707" x2="505.1" y2="705.5"/>
	<line id="t1_p134" class="st0" x1="505.1" y1="705.5" x2="521.2" y2="703.3"/>
	<line id="t1_p135" class="st0" x1="521.2" y1="703.3" x2="523.5" y2="703"/>
	<line id="t1_p136" class="st0" x1="523.5" y1="703" x2="522.2" y2="692.6"/>
	<line id="t1_p137" class="st0" x1="522.2" y1="692.6" x2="552.6" y2="688.9"/>
	<line id="t1_p138" class="st0" x1="552.6" y1="688.9" x2="552.6" y2="688.9"/>
	<line id="t1_p139" class="st0" x1="552.6" y1="688.9" x2="549.2" y2="668.4"/>
	<line id="t1_p140" class="st0" x1="549.2" y1="668.4" x2="546.1" y2="651.2"/>
	<line id="t1_p141" class="st0" x1="546.1" y1="651.2" x2="546.1" y2="651.2"/>
	<line id="t1_p142" class="st0" x1="546.1" y1="651.2" x2="570.7" y2="653.2"/>
	<line id="t1_p143" class="st0" x1="570.7" y1="653.2" x2="598" y2="655.3"/>
	<line id="t1_p144" class="st0" x1="598" y1="655.3" x2="619.9" y2="657.5"/>
	<line id="t1_p145" class="st0" x1="619.9" y1="657.5" x2="648.2" y2="660.4"/>
	<line id="t1_p146" class="st0" x1="648.2" y1="660.4" x2="695.6" y2="665.4"/>
	<line id="t1_p147" class="st0" x1="695.6" y1="665.4" x2="695.6" y2="665.4"/>
	<line id="t1_p148" class="st0" x1="695.6" y1="665.4" x2="696.5" y2="665.6"/>
	<line id="t1_p149" class="st0" x1="696.5" y1="665.6" x2="696.4" y2="663.6"/>
	<line id="t1_p150" class="st0" x1="696.4" y1="663.6" x2="696.2" y2="661.3"/>
	<line id="t1_p151" class="st0" x1="696.2" y1="661.3" x2="695.4" y2="659.2"/>
	<line id="t1_p152" class="st0" x1="695.4" y1="659.2" x2="694" y2="655.6"/>
	<line id="t1_p153" class="st0" x1="694" y1="655.6" x2="694" y2="649.8"/>
	<line id="t1_p154" class="st0" x1="694" y1="649.8" x2="693.2" y2="642"/>
	<line id="t1_p155" class="st0" x1="693.2" y1="642" x2="692.8" y2="640.3"/>
	<line id="t1_p156" class="st0" x1="692.8" y1="640.3" x2="692" y2="639.1"/>
	<line id="t1_p157" class="st0" x1="692" y1="639.1" x2="689.7" y2="637.1"/>
	<line id="t1_p158" class="st0" x1="689.7" y1="637.1" x2="684.7" y2="633.9"/>
	<line id="t1_p159" class="st0" x1="684.7" y1="633.9" x2="682.3" y2="630.9"/>
	<line id="t1_p160" class="st0" x1="682.3" y1="630.9" x2="678.6" y2="622.2"/>
	<line id="t1_p161" class="st0" x1="678.6" y1="622.2" x2="672" y2="612.1"/>
	<line id="t1_p162" class="st0" x1="672" y1="612.1" x2="669.5" y2="609"/>
	<line id="t1_p163" class="st0" x1="669.5" y1="609" x2="666.4" y2="607.3"/>
	<line id="t1_p164" class="st0" x1="666.4" y1="607.3" x2="663.7" y2="606.2"/>
	<line id="t1_p165" class="st0" x1="663.7" y1="606.2" x2="661.8" y2="606.2"/>
	<line id="t1_p166" class="st0" x1="661.8" y1="606.2" x2="655.2" y2="607.5"/>
	<line id="t1_p167" class="st0" x1="655.2" y1="607.5" x2="650.6" y2="608.2"/>
	<line id="t1_p168" class="st0" x1="650.6" y1="608.2" x2="645.7" y2="607.3"/>
	<line id="t1_p169" class="st0" x1="645.7" y1="607.3" x2="628.4" y2="601.6"/>
	<line id="t1_p170" class="st0" x1="628.4" y1="601.6" x2="624.8" y2="600.3"/>
	<line id="t1_p171" class="st0" x1="624.8" y1="600.3" x2="621.7" y2="598.1"/>
	<line id="t1_p172" class="st0" x1="621.7" y1="598.1" x2="618" y2="594.9"/>
	<line id="t1_p173" class="st0" x1="618" y1="594.9" x2="615.6" y2="591.7"/>
	<line id="t1_p174" class="st0" x1="615.6" y1="591.7" x2="612.9" y2="584.5"/>
	<line id="t1_p175" class="st0" x1="612.9" y1="584.5" x2="607" y2="566.4"/>
	<line id="t1_p176" class="st0" x1="607" y1="566.4" x2="600.4" y2="546.3"/>
	<line id="t1_p177" class="st0" x1="600.4" y1="546.3" x2="596.2" y2="531.9"/>
	<line id="t1_p178" class="st0" x1="596.2" y1="531.9" x2="595.5" y2="531.9"/>
	<line id="t1_p179" class="st0" x1="595.5" y1="531.9" x2="595.5" y2="531.9"/>
	<line id="t1_p180" class="st0" x1="595.5" y1="531.9" x2="662.3" y2="523"/>
	<line id="t1_p181" class="st0" x1="662.3" y1="523" x2="675.8" y2="520.4"/>
	<line id="t1_p182" class="st0" x1="675.8" y1="520.4" x2="675.8" y2="520.4"/>
	<line id="t1_p183" class="st0" x1="675.8" y1="520.4" x2="676.6" y2="520.2"/>
	<line id="t1_p184" class="st0" x1="676.6" y1="520.2" x2="673.6" y2="517.5"/>
	<line id="t1_p185" class="st0" x1="673.6" y1="517.5" x2="669.3" y2="511.3"/>
	<line id="t1_p186" class="st0" x1="669.3" y1="511.3" x2="667" y2="507"/>
	<line id="t1_p187" class="st0" x1="667" y1="507" x2="666.2" y2="504.4"/>
	<line id="t1_p188" class="st0" x1="666.2" y1="504.4" x2="665.8" y2="501.7"/>
	<line id="t1_p189" class="st0" x1="665.8" y1="501.7" x2="665.4" y2="498.3"/>
	<line id="t1_p190" class="st0" x1="665.4" y1="498.3" x2="664.5" y2="497.1"/>
	<line id="t1_p191" class="st0" x1="664.5" y1="497.1" x2="658.7" y2="494.8"/>
	<line id="t1_p192" class="st0" x1="658.7" y1="494.8" x2="651.8" y2="492.6"/>
	<line id="t1_p193" class="st0" x1="651.8" y1="492.6" x2="650.5" y2="491.8"/>
	<line id="t1_p194" class="st0" x1="650.5" y1="491.8" x2="649.9" y2="491.1"/>
	<line id="t1_p195" class="st0" x1="649.9" y1="491.1" x2="646" y2="470.1"/>
	<line id="t1_p196" class="st0" x1="646" y1="470.1" x2="640.9" y2="437.7"/>
	<line id="t1_p197" class="st0" x1="640.9" y1="437.7" x2="635.7" y2="406.1"/>
	<line id="t1_p198" class="st0" x1="635.7" y1="406.1" x2="633.2" y2="390.9"/>
	<line id="t1_p199" class="st0" x1="633.2" y1="390.9" x2="631" y2="381"/>
	<line id="t1_p200" class="st0" x1="631" y1="381" x2="627.9" y2="365.3"/>
	<line id="t1_p201" class="st0" x1="627.9" y1="365.3" x2="624.6" y2="347.7"/>
	<line id="t1_p202" class="st0" x1="624.6" y1="347.7" x2="621.7" y2="332.4"/>
	<line id="t1_p203" class="st0" x1="621.7" y1="332.4" x2="621.5" y2="327.5"/>
	<line id="t1_p204" class="st0" x1="621.5" y1="327.5" x2="622" y2="321.8"/>
	<line id="t1_p205" class="st0" x1="622" y1="321.8" x2="622.7" y2="317.3"/>
	<line id="t1_p206" class="st0" x1="622.7" y1="317.3" x2="624.7" y2="309.1"/>
	<line id="t1_p207" class="st0" x1="624.7" y1="309.1" x2="626.1" y2="300.9"/>
	<line id="t1_p208" class="st0" x1="626.1" y1="300.9" x2="630" y2="272.1"/>
	<line id="t1_p209" class="st0" x1="630" y1="272.1" x2="634" y2="242.3"/>
	<line id="t1_p210" class="st0" x1="634" y1="242.3" x2="640.4" y2="196.8"/>
	<line id="t1_p211" class="st0" x1="640.4" y1="196.8" x2="641.6" y2="187.4"/>
	<line id="t1_p212" class="st0" x1="641.6" y1="187.4" x2="643.2" y2="170"/>
	<line id="t1_p213" class="st0" x1="643.2" y1="170" x2="645" y2="148.8"/>
	<line id="t1_p214" class="st0" x1="645" y1="148.8" x2="645.6" y2="141.3"/>
	<line id="t1_p215" class="st0" x1="645.6" y1="141.3" x2="645.6" y2="137.3"/>
	<line id="t1_p216" class="st0" x1="645.6" y1="137.3" x2="644.9" y2="132.4"/>
	<line id="t1_p217" class="st0" x1="644.9" y1="132.4" x2="642" y2="119.7"/>
	<line id="t1_p218" class="st0" x1="642" y1="119.7" x2="640.6" y2="114.6"/>
	<line id="t1_p219" class="st0" x1="640.6" y1="114.6" x2="639.4" y2="112.1"/>
	<line id="t1_p220" class="st0" x1="639.4" y1="112.1" x2="637.7" y2="109.8"/>
	<line id="t1_p221" class="st0" x1="637.7" y1="109.8" x2="635.2" y2="107.4"/>
	<line id="t1_p222" class="st0" x1="635.2" y1="107.4" x2="630.9" y2="105.1"/>
	<line id="t1_p223" class="st0" x1="630.9" y1="105.1" x2="609" y2="95.1"/>
	<line id="t1_p224" class="st0" x1="609" y1="95.1" x2="592.3" y2="87.5"/>
	<line id="t1_p225" class="st0" x1="592.3" y1="87.5" x2="592.3" y2="87.5"/>
	<line id="t1_p226" class="st0" x1="592.3" y1="87.5" x2="591.4" y2="87"/>
	<line id="t1_p227" class="st0" x1="591.4" y1="87" x2="591" y2="87.6"/>
	<line id="t1_p228" class="st0" x1="591" y1="87.6" x2="583.1" y2="108.6"/>
	<line id="t1_p229" class="st0" x1="583.1" y1="108.6" x2="577.6" y2="124.6"/>
	<line id="t1_p230" class="st0" x1="577.6" y1="124.6" x2="565.4" y2="159.5"/>
	<line id="t1_p231" class="st0" x1="565.4" y1="159.5" x2="559" y2="178.6"/>
	<line id="t1_p232" class="st0" x1="559" y1="178.6" x2="552.3" y2="195.6"/>
	<line id="t1_p233" class="st0" x1="552.3" y1="195.6" x2="541.8" y2="221.8"/>
	<line id="t1_p234" class="st0" x1="541.8" y1="221.8" x2="540.8" y2="224.6"/>
	<line id="t1_p235" class="st0" x1="540.8" y1="224.6" x2="535.5" y2="237.7"/>
	<line id="t1_p236" class="st0" x1="535.5" y1="237.7" x2="529.8" y2="253.5"/>
	<line id="t1_p237" class="st0" x1="529.8" y1="253.5" x2="523.7" y2="270.7"/>
	<line id="t1_p238" class="st0" x1="523.7" y1="270.7" x2="522.4" y2="274.4"/>
	<line id="t1_p239" class="st0" x1="522.4" y1="274.4" x2="510.9" y2="306.6"/>
	<line id="t1_p240" class="st0" x1="510.9" y1="306.6" x2="509.5" y2="310.9"/>
	<line id="t1_p241" class="st0" x1="509.5" y1="310.9" x2="509.4" y2="316"/>
	<line id="t1_p242" class="st0" x1="509.4" y1="316" x2="509.7" y2="319.2"/>
	<line id="t1_p243" class="st0" x1="509.7" y1="319.2" x2="512.2" y2="328.1"/>
	<line id="t1_p244" class="st0" x1="512.2" y1="328.1" x2="518.7" y2="348.2"/>
	<line id="t1_p245" class="st0" x1="518.7" y1="348.2" x2="519.2" y2="351.1"/>
	<line id="t1_p246" class="st0" x1="519.2" y1="351.1" x2="519.3" y2="353.7"/>
	<line id="t1_p247" class="st0" x1="519.3" y1="353.7" x2="519.2" y2="356.6"/>
	<line id="t1_p248" class="st0" x1="519.2" y1="356.6" x2="518.7" y2="360.4"/>
	<line id="t1_p249" class="st0" x1="518.7" y1="360.4" x2="514.3" y2="383.4"/>
	<line id="t1_p250" class="st0" x1="514.3" y1="383.4" x2="514.1" y2="386.2"/>
	<line id="t1_p251" class="st0" x1="514.1" y1="386.2" x2="514.3" y2="388.2"/>
	<line id="t1_p252" class="st0" x1="514.3" y1="388.2" x2="514.8" y2="389.9"/>
</g>
</svg>
